<?xml version="1.0" standalone="no"?>
<!DOCTYPE svg PUBLIC "-//W3C//DTD SVG 20010904//EN"
 "http://www.w3.org/TR/2001/REC-SVG-20010904/DTD/svg10.dtd">
<svg version="1.0" xmlns="http://www.w3.org/2000/svg"
 width="502.000000pt" height="502.000000pt" viewBox="0 0 502.000000 502.000000"
 preserveAspectRatio="xMidYMid meet">
<metadata>
Created by potrace 1.14, written by Peter Selinger 2001-2017
</metadata>
<g transform="translate(0.000000,502.000000) scale(0.100000,-0.100000)"
fill="#000000" stroke="none">
<path d="M2330 4807 c-3 -2 -40 -7 -82 -11 -101 -9 -169 -21 -313 -58 -859
-221 -1509 -930 -1667 -1818 -29 -165 -36 -470 -14 -654 59 -497 269 -940 622
-1306 194 -201 390 -343 639 -465 260 -127 469 -187 769 -221 274 -31 596 -2
857 76 74 22 141 42 149 44 29 8 116 45 200 86 135 65 170 84 170 92 0 5 5 8
11 8 14 0 224 138 260 171 15 13 57 51 95 84 278 242 502 570 630 923 98 269
139 539 131 852 -8 258 -41 450 -118 670 -40 113 -45 125 -110 261 -215 442
-577 807 -1019 1028 -216 108 -427 177 -660 216 -90 16 -539 34 -550 22z"/>
<path d="M3772 443 c2 -13 14 -19 41 -21 20 -2 37 -9 38 -15 0 -7 0 -54 -1
-104 -1 -52 3 -93 8 -93 17 0 31 25 30 55 0 17 0 58 1 93 l1 62 40 0 c33 0 40
3 40 20 0 19 -7 20 -101 20 -90 0 -100 -2 -97 -17z"/>
<path d="M4014 383 c3 -43 9 -91 15 -108 8 -26 10 -22 11 35 1 36 2 69 1 73
-1 5 2 6 7 3 5 -3 21 -38 37 -78 30 -80 50 -108 64 -93 5 6 24 47 41 93 18 46
34 81 37 78 3 -3 6 -43 7 -88 1 -67 4 -83 16 -83 12 0 15 22 18 123 l3 122
-29 0 c-26 0 -31 -6 -45 -45 -9 -25 -24 -65 -33 -90 -8 -25 -19 -47 -23 -50
-4 -2 -24 37 -43 88 -31 82 -38 92 -62 95 l-27 3 5 -78z"/>
</g>
</svg>
